# xmcd
#
# Track frame offsets: 
#        150
#        15852
#        40860
#        58314
#        75136
#        103542
#        129573
#        146609
#        162349
#        183234
#        205912
#        233178
#        255861
#
# Disc length: 3863 seconds
#
# Revision: 0
# Processed by: cddbd v1.5.2PL0 Copyright (c) Steve Scherf et al.
# Submitted via: ExactAudioCopyFreeDBPlugin 1.0
#
DISCID=9c0f150d
DTITLE=Anthony David - #Location Location Location
DYEAR=2011
DGENRE=R&B
TTITLE0=#Location Location Location
TTITLE1=Rollin Mojo
TTITLE2=The Further We Go (feat. Giovanca)
TTITLE3=Body Language (Wangout Remix)
TTITLE4=4Evermore (DJ Kemi Deep House Remix)
TTITLE5=Reach Ya (Masheen Remix)
TTITLE6=Let Me In (Live)
TTITLE7=Find Your Love (Live)
TTITLE8=Girlfriend (Live)
TTITLE9=4Evermore (Live)
TTITLE10=Body Language (Live)
TTITLE11=Kinfolk-Georgia Peach (Live)
TTITLE12=Cold Turkey (Live)
EXTD=
EXTT0=
EXTT1=
EXTT2=
EXTT3=
EXTT4=
EXTT5=
EXTT6=
EXTT7=
EXTT8=
EXTT9=
EXTT10=
EXTT11=
EXTT12=
PLAYORDER=
